<svg width="89" height="132" viewBox="0 0 89 132" fill="none" xmlns="http://www.w3.org/2000/svg">
<path opacity="0.3" d="M65.4008 76.4861C65.4008 76.4861 68.3914 63.8105 78.4806 62.417C78.4806 62.417 80.4435 62.1757 81.0971 64.3373C81.7506 66.4989 77.8477 66.5142 75.4354 67.3839C73.0231 68.2537 67.3985 71.9391 65.4008 76.4861Z" fill="#AEC3FF"/>
<path opacity="0.3" d="M65.1711 74.1124C65.1711 74.1124 64.1223 63.6127 71.4827 59.8865C71.4827 59.8865 72.9232 59.1842 73.9935 60.6681C75.0638 62.152 72.0781 63.1923 70.4572 64.494C68.8363 65.7958 65.5032 70.102 65.1711 74.1124Z" fill="#AEC3FF"/>
<path d="M0.928223 112.715C-0.461244 109.549 4.57837 106.829 4.57837 106.829C4.57837 106.829 11.2191 108.979 12.1725 108.389C13.126 107.8 6.85382 105.443 6.85382 105.443C8.4014 103.929 14.3354 102.541 14.3354 102.541C14.3354 102.541 18.3385 108.065 19.1175 107.259C19.8964 106.452 15.3244 102.547 15.3244 102.547C17.3411 101.726 20.3832 102.4 20.3832 102.4C24.764 103.96 22.5348 109.504 22.5348 109.504C22.5348 109.504 23.9634 111.389 26.8011 112.584C26.8011 112.584 27.3716 112.768 28.1662 113.221L27.7234 113.577C27.5916 113.488 27.4595 113.405 27.3265 113.33H27.3241L27.3181 113.327C27.2327 113.283 27.1109 113.221 26.9588 113.146C26.6102 112.991 26.3599 112.867 26.1894 112.774C25.1141 112.269 23.658 111.656 23.0854 111.742C23.0749 111.647 23.0518 111.553 23.0168 111.463L23.0854 111.742C23.6356 113.978 20.0637 117.301 17.6034 118.568C15.1431 119.835 15.5839 118.499 15.9425 116.616C16.301 114.734 18.8883 113.07 19.2868 112.124C19.6852 111.178 18.3485 111.627 17.0309 112.87C15.7133 114.112 16.1405 116.086 14.0411 118.134C11.9417 120.183 6.76398 117.301 6.76398 117.301C8.72641 116.523 10.8441 113.388 10.5171 112.761C10.1901 112.134 6.06406 115.544 5.28348 115.905C4.50291 116.266 2.31729 115.882 0.928223 112.715Z" fill="#B6D1F4"/>
<path d="M84.2065 117.437C87.3089 113.776 81.6834 108.163 81.6834 108.163C81.6834 108.163 71.9999 108.39 70.9654 107.229C69.9309 106.067 79.2074 105.417 79.2074 105.417C77.7488 102.789 70.4081 98.5933 70.4081 98.5933C70.4081 98.5933 62.8957 104.354 62.1789 102.974C61.4622 101.594 69.0907 98.212 69.0907 98.212C66.7338 96.3214 62.4209 96.0122 62.4209 96.0122C55.9767 96.3513 56.7448 104.609 56.7448 104.609C56.7448 104.609 54.0983 106.549 49.8508 107.015C49.8508 107.015 49.0197 107.032 47.7836 107.321L48.2315 107.971C48.4417 107.903 48.6503 107.846 48.8572 107.8C48.8578 107.799 48.8584 107.799 48.859 107.799C48.8597 107.799 48.8603 107.799 48.8609 107.8H48.87C49.0008 107.775 49.1878 107.738 49.42 107.701C49.9455 107.632 50.325 107.568 50.5908 107.51C52.2205 107.266 54.4008 107.026 55.1273 107.368C55.1795 107.245 55.2475 107.129 55.3296 107.024C55.2685 107.134 55.1982 107.248 55.1273 107.368C53.5104 110.122 56.9446 115.957 59.7145 118.618C62.4845 121.278 62.4283 119.325 62.6971 116.68C62.966 114.035 60.1838 110.796 60.0286 109.38C59.8734 107.965 61.4695 109.091 62.7332 111.266C63.9969 113.442 62.6434 115.897 64.6275 119.454C66.6116 123.012 74.636 121.226 74.636 121.226C72.3342 119.415 70.7589 114.408 71.4439 113.702C72.1289 112.995 76.2639 119.168 77.1591 119.957C78.0543 120.746 81.1047 121.096 84.2065 117.437Z" fill="#B6D1F4"/>
<path opacity="0.5" d="M2.78255 40.7785C6.2382 34.9801 16.2769 39.9047 16.2769 39.9047C16.2769 39.9047 20.393 52.8971 22.4108 53.7445C24.4286 54.5919 21.0614 41.9489 21.0614 41.9489C25.2231 42.6913 34.1595 50.549 34.1595 50.549C34.1595 50.549 29.9198 63.1762 32.0842 63.5005C34.2487 63.8248 35.2678 52.1296 35.2678 52.1296C38.8602 54.4043 41.2392 60.0039 41.2392 60.0039C43.7286 68.7355 32.3887 71.4811 32.3887 71.4811C32.3887 71.4811 31.0143 75.8885 32.3319 81.7549C32.3319 81.7549 32.6879 82.8698 32.8696 84.6458L31.8009 84.3466C31.7936 84.0356 31.7751 83.7317 31.7428 83.4358C31.7433 83.4349 31.7436 83.4339 31.7436 83.4329C31.7436 83.4318 31.7433 83.4308 31.7428 83.4299C31.7428 83.4259 31.7428 83.4213 31.7428 83.4173C31.7157 83.2317 31.6767 82.9669 31.6252 82.6439C31.4779 81.9128 31.3894 81.3791 31.3452 80.9986C30.9284 78.7173 30.2508 75.7075 29.4635 74.8958C29.6037 74.7704 29.7269 74.6271 29.83 74.4698L29.4635 74.8958C26.5362 78.3052 17.2029 76.3971 12.3979 73.9242C7.59286 71.4514 10.2183 70.6357 13.6158 69.0703C17.0133 67.505 22.5931 69.7308 24.5488 69.2909C26.5045 68.851 24.2767 67.2434 20.8045 66.5519C17.3324 65.8604 14.6825 68.785 9.0479 67.7705C3.41332 66.756 2.11943 55.2589 2.11943 55.2589C5.58036 57.4967 12.9632 57.3064 13.5907 56.074C14.2182 54.8415 4.11607 52.1533 2.65772 51.3185C1.19937 50.4836 -0.673097 46.5775 2.78255 40.7785Z" fill="#B6D1F4"/>
<path d="M70.1813 27.7103C70.1813 27.7103 69.2511 23.5083 71.2688 20.9727C73.2865 18.437 79.8018 15.2974 78.5296 11.696C77.2574 8.09459 72.8651 7.6543 71.1046 9.40419C69.344 11.1541 70.3274 13.0372 69.139 13.272C67.9506 13.5068 61.0399 13.8365 61.5486 9.82981C62.0572 5.82312 66.4778 0.23363 72.3734 0.0439643C78.269 -0.145701 86.1098 -0.0644172 87.816 7.70285C89.5221 15.4701 86.6117 18.5206 82.4415 20.5256C78.2713 22.5306 80.2108 27.0849 78.7029 27.7103C77.195 28.3358 70.3625 29.0651 70.1813 27.7103Z" fill="#E7F0FC"/>
<path d="M68.6903 35.5239C69.1434 32.3108 71.0003 30.3047 73.8506 30.3047C76.701 30.3047 79.0733 31.787 79.7904 35.4979C80.3376 38.3271 76.6999 40.7442 73.8506 40.7442C71.0014 40.7442 68.2881 38.3767 68.6903 35.5239Z" fill="#E7F0FC"/>
<path d="M53.0041 79.1723C52.2839 79.0785 51.5927 78.829 50.9786 78.4413C48.9153 77.1529 47.5303 74.4326 46.4896 69.6204C46.0108 67.4046 44.6106 64.7342 44.597 64.707L49.2491 62.1741C49.3216 62.31 51.0073 65.5181 51.6462 68.4725C52.0072 70.1446 52.2005 59.5927 53.0902 58.5944C53.6354 57.9902 55.8346 58.9886 55.8346 58.9886C56.188 60.348 57.0626 63.1407 57.5791 67.3608C57.8918 69.915 58.0217 72.0114 57.9658 73.5898C57.9547 74.5164 57.8201 75.4373 57.5655 76.3282C56.9614 78.251 55.6851 78.8476 54.9812 79.0334C54.3372 79.2063 53.6659 79.2535 53.0041 79.1723Z" fill="#C97E67"/>
<path d="M53.6969 78.6497C53.4565 78.6539 53.2178 78.6081 52.996 78.5153C52.7891 78.4186 52.6743 78.2857 52.6743 78.1377C52.6743 77.8492 53.1274 77.6211 53.6999 77.6196C53.9431 77.6132 54.1847 77.6596 54.4083 77.7555C54.6152 77.8507 54.7285 77.9851 54.73 78.1331C54.73 78.4216 54.2769 78.6482 53.7029 78.6497H53.6969ZM53.7059 77.7601C53.1803 77.7601 52.8163 77.9594 52.8163 78.1377C52.8163 78.2253 52.9039 78.3174 53.058 78.3884C53.2616 78.4735 53.4808 78.5151 53.7014 78.5107C54.2255 78.5107 54.591 78.3098 54.591 78.1331C54.591 78.044 54.5019 77.9519 54.3494 77.8824C54.1469 77.7971 53.9287 77.7554 53.709 77.7601H53.7059Z" fill="#B2604D"/>
<path d="M51.1058 73.8843C51.089 73.8844 51.0728 73.8783 51.0602 73.8671C51.0477 73.856 51.0397 73.8406 51.0378 73.8239C51.0378 73.7937 50.6799 70.8468 51.7583 68.5374C51.7661 68.5208 51.7802 68.508 51.7975 68.5018C51.8148 68.4956 51.8338 68.4964 51.8504 68.5042C51.8667 68.5123 51.8792 68.5265 51.8851 68.5438C51.8911 68.561 51.89 68.5799 51.8821 68.5963C50.8249 70.871 51.1707 73.7771 51.1738 73.8058C51.175 73.8147 51.1745 73.8238 51.1722 73.8325C51.1699 73.8413 51.1659 73.8495 51.1605 73.8566C51.155 73.8638 51.1481 73.8698 51.1403 73.8743C51.1325 73.8788 51.1238 73.8817 51.1149 73.8828L51.1058 73.8843Z" fill="#B2604D"/>
<path d="M37.8996 56.8197C37.8996 56.8197 38.1911 55.7442 36.945 55.3787C35.6989 55.0132 36.5538 57.9147 33.4575 57.6021C30.3611 57.2894 31.4048 58.614 30.4094 59.5762C29.4141 60.5383 25.0474 58.3256 23.4887 62.1288C21.9299 65.932 24.6759 68.7263 30.0847 68.9257C35.4935 69.1251 33.3578 72.1489 37.9389 70.4648C42.52 68.7807 40.49 61.3781 39.2031 60.2151C37.9162 59.0521 37.8996 56.8197 37.8996 56.8197Z" fill="#44474F"/>
<path d="M42.1373 127.485C42.1373 127.485 42.1796 129.176 43.3063 129.652C44.4331 130.128 47.6987 130.558 46.4782 131.647C45.7774 132.271 42.4771 131.868 41.5452 131.868C40.6133 131.868 39.7327 132.28 39.047 131.647C38.2917 130.951 39.047 127.485 39.047 127.485C39.047 127.485 39.8505 127.911 40.574 127.891C41.6132 127.864 42.1373 127.485 42.1373 127.485Z" fill="#33353B"/>
<path d="M29.1953 127.485C29.1953 127.485 29.2361 129.176 30.3644 129.652C31.4927 130.128 34.7567 130.558 33.5363 131.646C32.8355 132.27 29.5367 131.868 28.6048 131.868C27.6728 131.868 26.7923 132.279 26.1065 131.646C25.3513 130.95 26.1065 127.485 26.1065 127.485C26.1065 127.485 26.9101 127.911 27.6336 127.891C28.6742 127.864 29.1953 127.485 29.1953 127.485Z" fill="#33353B"/>
<path d="M50.5141 81.142C50.5141 81.142 50.4341 88.9327 49.8163 102.681C49.333 113.459 49.4327 123.447 48.5022 128.181C48.1684 129.874 35.8555 129.012 35.9869 127.148L38.902 93.8491L39.4593 83.3079L50.5141 81.142Z" fill="#7D7D7D"/>
<path d="M30.1583 87.3678C30.261 88.2288 35.0596 88.123 40.9352 87.3678C46.8107 86.6126 51.3827 85.3212 51.28 84.4603C51.1773 83.5993 46.4376 83.4936 40.5636 84.2488C34.6896 85.004 30.0556 86.5084 30.1583 87.3678Z" fill="#33353B"/>
<path d="M43.7702 86.1959L32.8348 128.172C32.3091 129.883 21.9356 129.654 22.2618 127.837L30.7459 88.1353C30.7919 87.9143 30.8965 87.7098 31.0488 87.5431C31.2011 87.3765 31.3954 87.2539 31.6113 87.1882C33.963 86.4995 44.0013 84.4982 43.7702 86.1959Z" fill="#7D7D7D"/>
<path d="M32.4106 63.0923C32.4106 63.0923 33.5269 59.2846 39.4719 59.5006C42.7329 59.6199 46.1646 58.6879 47.6931 63.8808C49.1733 68.9044 50.7774 76.7753 51.2804 84.4678C51.2804 84.4678 41.5457 82.3019 30.142 87.3558C30.142 87.3512 29.8006 70.0373 32.4106 63.0923Z" fill="#C9B3D3"/>
<path d="M28.1703 62.5319L31.898 65.6389C31.898 65.6389 45.9449 69.2639 48.0021 67.1599C49.4098 65.7114 50.162 63.6451 49.6832 62.5742C49.6832 62.5742 45.8271 58.9855 39.7296 59.277C38.9487 59.329 38.1654 59.3351 37.3839 59.2951C32.41 59.0111 28.1703 62.5319 28.1703 62.5319Z" fill="#C9B3D3"/>
<path d="M37.5251 110.586L37.3197 110.538L40.6592 96.0936C41.2614 94.1886 42.548 92.5743 44.2707 91.5624L44.3749 91.7482C42.6999 92.7319 41.4476 94.3 40.8586 96.151L37.5251 110.586Z" fill="#33353B"/>
<path d="M37.0915 59.3118C37.4139 59.2778 37.7213 59.158 37.9816 58.9649C38.242 58.7718 38.4457 58.5124 38.5717 58.2137L39.3859 56.2939L39.623 55.7381L41.0096 52.4635L40.7694 55.8559L40.6184 57.8935L40.5776 58.4735C40.5605 58.7009 40.6282 58.9266 40.7676 59.107C40.9071 59.2875 41.1084 59.4099 41.3328 59.4507H41.3418C41.588 59.8585 41.9294 60.6878 40.9099 61.017C39.7106 61.4037 37.7727 60.4476 37.0764 59.3118H37.0915Z" fill="#C97E67"/>
<path d="M39.557 56.1565C39.6371 57.2501 40.6143 57.8996 40.6143 57.8996H40.6219L40.7729 55.862C40.4179 55.7261 39.5555 56.1369 39.557 56.1565Z" fill="#33353B"/>
<path d="M41.9867 56.5479C43.6371 56.0043 44.425 53.8937 43.7465 51.8337C43.068 49.7736 41.1801 48.5443 39.5297 49.0879C37.8793 49.6315 37.0914 51.7421 37.7699 53.8021C38.4484 55.8622 40.3363 57.0915 41.9867 56.5479Z" fill="#C97E67"/>
<path d="M34.8822 86.436C34.8822 86.436 46.6061 84.1628 50.4078 85.2277L48.5848 87.9721L41.8075 88.3618L34.8822 86.436Z" fill="#656565"/>
<path d="M38.7445 50.8761C39.0843 51.5089 40.6733 51.4802 41.7744 51.1449C43.1488 50.7326 43.6503 52.5043 43.9116 51.6857C44.1729 50.867 44.0778 48.5304 42.5069 47.6513C40.9361 46.7722 37.3141 47.7616 37.0875 49.0182C36.7537 50.8685 38.4545 50.3338 38.7445 50.8761Z" fill="#44474F"/>
<path d="M37.2743 49.7432C37.2743 49.7432 38.2485 49.6481 38.3512 50.0695C38.4539 50.4909 39.3511 51.0316 38.8466 51.5013C38.3422 51.9711 38.2546 52.175 38.4147 52.6236C38.5249 52.9362 38.2244 53.8229 38.25 54.5207C38.2606 54.8228 38.6246 55.3469 38.6246 55.3469C38.6246 55.3469 36.0916 55.3831 35.5841 52.616C35.2534 50.8156 36.6293 49.7145 37.2743 49.7432Z" fill="#44474F"/>
<path d="M38.0506 54.4166C38.5037 54.622 38.9795 54.4876 39.123 54.1145C39.2664 53.7414 39.0218 53.2762 38.5732 53.0708C38.1246 52.8654 37.6427 53.0013 37.4993 53.3729C37.3558 53.7444 37.602 54.2127 38.0506 54.4166Z" fill="#C97E67"/>
<path d="M34.4903 66.589C34.2033 67.0512 32.5569 66.5165 30.8124 65.3958C29.0679 64.275 27.8882 62.9927 28.1752 62.526C28.4622 62.0592 30.1101 62.6 31.8546 63.7192C33.5991 64.8384 34.7788 66.1283 34.4903 66.589Z" fill="#33353B"/>
<path d="M29.5618 79.8006C29.5618 79.8006 31.5254 77.9715 33.0841 78.1392C34.6429 78.3068 36.5037 79.6994 35.5189 79.8006C34.5341 79.9018 33.2397 79.6934 33.2397 79.6934C33.2397 79.6934 35.9857 80.2855 35.5718 80.873C35.1579 81.4606 32.7745 80.9259 32.7745 80.9259C32.7745 80.9259 35.9872 81.8941 35.4162 82.3245C34.8453 82.755 32.412 82.0028 32.412 82.0028C32.412 82.0028 35.3649 83.0239 34.6912 83.5132C34.0176 84.0026 32.2489 82.6523 31.8411 83.2444C31.4332 83.8365 30.6493 86.1489 28.8882 85.1807L29.5618 79.8006Z" fill="#C97E67"/>
<path d="M33.2392 79.7524C33.2327 79.7539 33.226 79.7539 33.2196 79.7524C33.212 79.7524 32.487 79.4805 32.117 79.7524C32.1107 79.7567 32.1037 79.7597 32.0963 79.7612C32.0889 79.7628 32.0812 79.7629 32.0738 79.7615C32.0663 79.7601 32.0592 79.7572 32.0529 79.7531C32.0466 79.7489 32.0411 79.7435 32.0369 79.7373C32.0284 79.7245 32.025 79.7089 32.0276 79.6938C32.0301 79.6786 32.0383 79.665 32.0505 79.6557C32.4704 79.3536 33.2271 79.6376 33.2588 79.6557C33.2734 79.6611 33.2853 79.6721 33.2918 79.6863C33.2983 79.7004 33.2989 79.7166 33.2936 79.7312C33.287 79.739 33.2786 79.7451 33.2691 79.7488C33.2596 79.7525 33.2493 79.7537 33.2392 79.7524Z" fill="#B2604D"/>
<path d="M31.3939 80.9894C31.3827 80.9892 31.3718 80.9858 31.3624 80.9797C31.3531 80.9735 31.3457 80.9648 31.3411 80.9546C31.335 80.9404 31.3347 80.9243 31.3404 80.9099C31.346 80.8955 31.3571 80.8839 31.3713 80.8776C32.0344 80.5755 32.7639 80.864 32.7941 80.8776C32.8082 80.8836 32.8194 80.8948 32.8256 80.9088C32.8318 80.9228 32.8324 80.9386 32.8273 80.9531C32.8247 80.9603 32.8206 80.9669 32.8153 80.9725C32.81 80.9781 32.8037 80.9826 32.7966 80.9857C32.7896 80.9888 32.782 80.9905 32.7743 80.9906C32.7666 80.9907 32.7589 80.9892 32.7518 80.9863C32.7518 80.9863 32.0374 80.7069 31.4181 80.9863C31.4103 80.9888 31.4021 80.9898 31.3939 80.9894Z" fill="#B2604D"/>
<path d="M32.4104 82.0648C32.4039 82.0662 32.3972 82.0662 32.3907 82.0648C32.3817 82.0648 31.5207 81.7385 31.1522 82.0542C31.1468 82.0596 31.1405 82.0639 31.1335 82.0668C31.1265 82.0697 31.119 82.0712 31.1114 82.0712C31.1038 82.0712 31.0963 82.0697 31.0893 82.0668C31.0823 82.0639 31.076 82.0596 31.0706 82.0542C31.06 82.043 31.0541 82.0281 31.0541 82.0127C31.0541 81.9972 31.06 81.9823 31.0706 81.9711C31.4905 81.6117 32.3847 81.947 32.43 81.9606C32.4441 81.9666 32.4553 81.9777 32.4615 81.9918C32.4677 82.0058 32.4683 82.0216 32.4632 82.0361C32.4579 82.0453 32.4502 82.0528 32.4409 82.0579C32.4315 82.063 32.421 82.0653 32.4104 82.0648Z" fill="#B2604D"/>
<path d="M56.323 62.4459C56.323 62.4459 59.1505 62.6891 60.2576 61.5698C61.3648 60.4506 61.9432 58.1714 61.1125 58.7182C60.2818 59.2649 59.4088 60.2588 59.4088 60.2588C59.4088 60.2588 61.1744 58.043 60.4842 57.8421C59.7939 57.6412 58.279 59.5897 58.279 59.5897C58.279 59.5897 60.1715 56.7833 59.4616 56.8135C58.7517 56.8437 57.3289 58.9855 57.3289 58.9855C57.3289 58.9855 58.9904 56.303 58.1642 56.3589C57.338 56.4148 56.8048 58.5837 56.1191 58.3889C55.4333 58.1941 52.7523 57.528 52.7523 59.4885L56.323 62.4459Z" fill="#C97E67"/>
<path d="M58.5135 61.0518C58.4987 61.0515 58.4845 61.0458 58.4737 61.0358C58.4628 61.0257 58.456 61.0121 58.4546 60.9974C58.4537 60.982 58.4589 60.9669 58.4691 60.9554C58.4793 60.9438 58.4936 60.9366 58.5089 60.9355C58.9621 60.9053 59.3563 60.2316 59.3593 60.2256C59.363 60.2188 59.3681 60.2129 59.3742 60.2081C59.3803 60.2034 59.3873 60.1999 59.3948 60.1979C59.4023 60.196 59.4101 60.1955 59.4177 60.1966C59.4254 60.1978 59.4327 60.2004 59.4393 60.2044C59.4524 60.2126 59.4618 60.2255 59.4655 60.2405C59.4692 60.2554 59.4668 60.2712 59.459 60.2845C59.4424 60.3147 59.03 61.0186 58.5165 61.0518H58.5135Z" fill="#B2604D"/>
<path d="M57.2085 60.5322C57.1958 60.5323 57.1834 60.5283 57.1733 60.5206C57.1632 60.5129 57.1559 60.5022 57.1526 60.4899C57.1488 60.4749 57.1509 60.459 57.1585 60.4455C57.1661 60.4321 57.1786 60.422 57.1934 60.4174C57.8474 60.2392 58.225 59.5701 58.2295 59.564C58.233 59.5572 58.2378 59.5512 58.2437 59.5463C58.2496 59.5414 58.2565 59.5378 58.2639 59.5356C58.2712 59.5335 58.279 59.5329 58.2866 59.5339C58.2942 59.5349 58.3015 59.5375 58.3081 59.5414C58.3214 59.5493 58.3311 59.5621 58.3351 59.5771C58.339 59.5921 58.3369 59.608 58.3292 59.6214C58.3141 59.6501 57.9244 60.3389 57.2236 60.5277L57.2085 60.5322Z" fill="#B2604D"/>
<path d="M56.3332 59.8782H56.3226C56.3142 59.8796 56.3055 59.8791 56.2973 59.8768C56.2891 59.8745 56.2815 59.8704 56.275 59.8649C56.2685 59.8594 56.2633 59.8525 56.2597 59.8448C56.2561 59.837 56.2543 59.8286 56.2543 59.8201C56.2543 59.8115 56.2561 59.8031 56.2597 59.7953C56.2633 59.7876 56.2685 59.7807 56.275 59.7752C56.2815 59.7697 56.2891 59.7656 56.2973 59.7633C56.3055 59.761 56.3142 59.7605 56.3226 59.7619H56.3316C56.8104 59.7619 57.2726 58.9704 57.2772 58.9629C57.285 58.9497 57.2977 58.9401 57.3126 58.9363C57.3275 58.9324 57.3432 58.9347 57.3565 58.9425C57.3697 58.9503 57.3793 58.9631 57.3831 58.9779C57.3869 58.9928 57.3847 59.0086 57.3769 59.0218C57.3587 59.0535 56.8784 59.8782 56.3332 59.8782Z" fill="#B2604D"/>
<path d="M28.8881 85.1808C26.2041 84.1371 22.2423 81.5453 21.4871 77.5185C20.9055 74.4191 22.0082 70.8877 24.7632 67.0195C25.8952 65.4368 27.2658 64.0391 28.8262 62.8764C28.8262 62.8764 29.6343 62.6846 31.3939 63.7661C33.5206 65.0711 33.8423 66.2885 33.8423 66.2885C31.7957 68.1961 26.9095 72.1338 27.0847 75.1592C27.1874 76.9294 28.3383 78.5758 30.2928 79.3355L28.8881 85.1808Z" fill="#C97E67"/>
<path d="M53.2878 42.5287C53.2878 42.5287 52.7139 39.9307 53.9615 38.3569C55.2091 36.783 59.2328 34.8421 58.4474 32.6173C57.662 30.3924 54.9463 30.1145 53.8603 31.1975C52.7743 32.2805 53.3815 33.448 52.6519 33.593C51.9224 33.738 47.6494 33.9449 47.9696 31.4618C48.2898 28.9787 51.0146 25.5183 54.6563 25.402C58.2979 25.2857 63.1418 25.3355 64.1931 30.1447C65.2443 34.9539 63.4499 36.8434 60.8701 38.085C58.2903 39.3266 59.4926 42.1465 58.5577 42.5332C57.6227 42.9199 53.3981 43.3639 53.2878 42.5287Z" fill="#B6D1F4"/>
<path d="M52.3664 47.3681C52.6458 45.3773 53.7937 44.1358 55.5533 44.1358C57.313 44.1358 58.7796 45.0541 59.2237 47.3499C59.5605 49.102 57.3145 50.5989 55.5533 50.5989C53.7922 50.5989 52.1186 49.1337 52.3664 47.3681Z" fill="#B6D1F4"/>
</svg>
